<svg height="512" viewBox="0 0 64 64" width="512" xmlns="http://www.w3.org/2000/svg"><g id="Money"><path d="m7 27h54v30h-54z" fill="#3e7318"/><path d="m57 35v14a4 4 0 0 0 -4 4h-38a4 4 0 0 0 -4-4v-14a4 4 0 0 0 4-4h38a4 4 0 0 0 4 4z" fill="#7ed63e"/><circle cx="34" cy="42" fill="#f1f2f2" r="7"/><path d="m3 7h54v30h-54z" fill="#5eac24"/><path d="m55 7h2v30h-2z" fill="#559b20"/><path d="m59 27h2v30h-2z" fill="#386716"/><path d="m53 15v14a4 4 0 0 0 -4 4h-38a4 4 0 0 0 -4-4v-14a4 4 0 0 0 4-4h38a4 4 0 0 0 4 4z" fill="#7ed63e"/><g fill="#f1f2f2"><circle cx="30" cy="22" r="7"/><path d="m43 23h4a1 1 0 0 0 0-2h-4a1 1 0 0 0 0 2z"/><path d="m13 23h4a1 1 0 0 0 0-2h-4a1 1 0 0 0 0 2z"/><path d="m47 43h4a1 1 0 0 0 0-2h-4a1 1 0 0 0 0 2z"/><path d="m17 43h4a1 1 0 0 0 0-2h-4a1 1 0 0 0 0 2z"/></g></g></svg>